<svg id="Layer_1" data-name="Layer 1" xmlns="http://www.w3.org/2000/svg" viewBox="0 0 135.25 39.82"><defs><style>.cls-1{fill:#f7941d;}</style></defs><path class="cls-1" d="M26.64,16.85c.45,3.64.87,7.28,1.38,10.91.32,2.31.11,3.87-2.81,4.31-3.18.49-4.12-.87-4.25-3.64-.2-4.13-.51-7.57-6.59-6.35-4.18.83-5.46,2.14-4.49,6.23.57,2.38,2.07,5.6-2.7,6S3.64,31,3.25,28.69Q1.78,19.87.84,11C.57,8.45-1.8,4.9,3.51,4.3c4.82-.55,3.55,3.16,4,5.45.62,3.35.1,6.84,5.71,6C17.75,15.11,20,13.9,18.55,9c-.25-.87-.19-1.83-.36-2.73-.45-2.37,0-3.85,2.85-4.23s3.7.67,3.94,3.21c.38,3.88.94,7.73,1.43,11.6Z"/><path class="cls-1" d="M83.64,23.52c0,2.15.08,4.3,0,6.44C83.31,37.28,77,41.6,70.21,39.11c-1.83-.67-3.77-1.43-2.84-4.15s2.77-1.4,4.18-.74a5.22,5.22,0,0,0,3.93.52,3.75,3.75,0,0,0,2.76-4c-.35-2.91-2.26-.89-3.47-.69-3,.48-5.53-.5-7-3.1a10.92,10.92,0,0,1,0-10.68c1.35-2.61,3.73-3.67,6.86-3.36C83.64,13.75,83.65,13.66,83.64,23.52Zm-5.78-2.47c-.56-1.19.72-3.7-2.17-3.62-2.66.08-2.78,2.21-2.78,4.2,0,1.79.17,3.72,2.5,3.82C78.65,25.6,77.41,22.93,77.86,21.05Z"/><path class="cls-1" d="M120.08,18.44a62.13,62.13,0,0,0,0,7.6c.61,4.9-1.82,5.36-5.43,3.88-.91-.38-1.56-1-2.52-.41-3.13,2-5.74.85-7.64-1.74-2.4-3.27-2.2-7.07-.7-10.61,1.25-2.93,3.81-4.7,7.07-3.84,3.92,1,3-1.53,3.1-3.52s-1.09-4.87,2.93-5,2.93,2.73,3,4.81c.13,2.92,0,5.85,0,8.78Zm-6,3.26c-.11-1.77.15-3.87-2.37-3.87s-2.47,2-2.49,3.76c0,2,.22,4.22,2.85,4.11S113.9,23.24,114.12,21.7Z"/><path class="cls-1" d="M47.14,24.45c1.15,5.53.07,8.47-6.38,4.89-.58-.31-1.8.42-2.67.78a5.66,5.66,0,0,1-6.91-1.46,4.63,4.63,0,0,1-.28-5.51c1.49-2.36,3.91-2.91,6.61-2.86,1.16,0,3.17,2.42,3.43-.55.18-2-2-1.88-3.55-1.94-.2,0-.45.08-.58,0-1.69-1.18-5.16,3-5.42-1.3-.21-3.54,3.5-3,5.79-3.18C43.48,12.7,49.05,15.28,47.14,24.45Z"/><path class="cls-1" d="M49,20.74c-.11-1.56-.26-3.12-.31-4.67,0-1.16.12-3.15,1.1-3,4.27.83,8.64-1.3,12.75.47,3.36,1.44,2.84,4.74,3.08,7.6.15,1.75.34,3.49.57,5.23.32,2.35-.33,3.68-3,3.72-2.34,0-3.07-1-3-3.13a55.18,55.18,0,0,0-.18-6.43c-.15-1.58-.67-3.24-2.72-3.16s-2.56,1.46-2.56,3.23c0,2.15,0,4.29,0,6.44,0,1.69-.16,3-2.45,3-2.13,0-3.34-.57-3.23-2.94C49.05,25,49,22.88,49,20.74Z"/><path class="cls-1" d="M91.21,22.14c1.2,4.87,4.41,3.9,6.87,4.38.94.18,2,0,2.11,1.41a2.07,2.07,0,0,1-1.91,2.4c-4.52,1-8.8.46-11.64-3.34-2.44-3.26-1.85-7.29.51-10.36,3-3.87,7.18-4.1,11.62-2.43,3.51,1.33,4,4.22,3.43,7.16-.63,3.45-3.43,1.31-5.26,1.39A38.69,38.69,0,0,1,91.21,22.14Z"/><path class="cls-1" d="M127.29,22.33c-.32-5.62-.73-11.25-1-16.87-.15-3.7,2.41-5.93,5.46-5.38,2.5.45,4.24,3.36,3.08,6.49-1.95,5.29-4,10.52-6.07,15.78Z"/><circle class="cls-1" cx="126.27" cy="28.62" r="3.98"/></svg>